<?xml version="1.0" standalone="no"?>
<!DOCTYPE svg PUBLIC "-//W3C//DTD SVG 20010904//EN"
 "http://www.w3.org/TR/2001/REC-SVG-20010904/DTD/svg10.dtd">
<svg version="1.0" xmlns="http://www.w3.org/2000/svg"
 width="500.000000pt" height="500.000000pt" viewBox="0 0 500.000000 500.000000"
 preserveAspectRatio="xMidYMid meet">

<g transform="translate(0.000000,500.000000) scale(0.100000,-0.100000)"
fill="#000000" stroke="none">
<path d="M1390 4274 c-16 -49 -15 -136 4 -196 32 -107 112 -198 214 -246 49
-23 70 -27 155 -27 53 0 97 -1 97 -3 0 -2 -19 -11 -42 -22 -61 -26 -136 -33
-205 -20 -57 11 -62 11 -134 -20 -417 -177 -727 -560 -819 -1010 -27 -131 -27
-350 0 -350 4 0 11 12 14 28 14 54 96 208 141 260 50 60 57 55 21 -16 -93
-184 -144 -507 -117 -732 30 -243 132 -480 263 -608 l44 -42 -18 87 c-14 65
-18 112 -14 178 8 136 16 154 33 70 49 -246 166 -469 325 -621 164 -156 357
-243 643 -287 l30 -5 -30 21 c-59 42 -154 145 -179 195 l-26 51 74 -53 c173
-124 438 -196 716 -196 137 1 245 17 331 49 57 22 149 77 149 90 0 4 -30 13
-67 21 -37 7 -108 33 -157 58 -74 37 -107 61 -177 131 -143 144 -212 309 -212
511 -1 189 61 342 199 490 l43 46 -107 1 c-311 3 -604 200 -725 486 -32 77
-58 197 -56 265 1 45 2 45 14 -23 74 -402 385 -656 803 -655 108 0 188 15 307
56 104 35 282 45 388 20 92 -21 197 -72 281 -135 86 -64 153 -85 247 -79 86 7
162 42 217 102 65 71 85 118 90 218 4 83 3 91 -31 165 -19 43 -43 106 -52 140
-21 73 -71 166 -85 158 -6 -4 -10 -21 -10 -40 0 -18 -7 -67 -16 -109 -17 -84
-11 -106 30 -106 18 -1 19 -2 4 -10 -10 -6 -25 -7 -41 -1 -21 8 -25 18 -31 68
-7 63 -41 145 -75 181 -19 19 -41 29 -41 18 0 -19 -35 -182 -47 -223 -12 -38
-22 -53 -35 -53 -10 0 -65 13 -122 29 -58 16 -170 39 -249 50 -203 30 -270 57
-297 120 -19 47 -7 56 20 15 30 -47 113 -91 185 -100 l50 -6 -45 32 c-71 51
-84 75 -88 157 -3 50 1 89 14 129 25 80 106 188 186 248 37 28 63 53 57 54
-18 7 -113 -20 -169 -47 -30 -14 -83 -54 -117 -87 -35 -34 -63 -59 -63 -55 0
18 61 100 102 138 89 81 186 113 343 113 96 0 262 -21 286 -36 8 -5 10 -41 6
-130 -2 -67 -3 -125 0 -128 10 -10 83 35 122 75 22 23 52 68 67 100 17 35 35
59 44 59 19 0 51 -20 33 -20 -10 0 -13 -26 -13 -95 0 -109 6 -115 65 -63 38
32 64 76 85 142 7 21 21 47 31 57 46 46 109 223 109 307 0 55 -28 100 -89 142
-64 43 -140 122 -123 128 6 2 46 -17 89 -41 43 -24 89 -48 102 -52 23 -7 24
-6 18 26 -23 118 -426 309 -652 309 -108 0 -228 24 -413 84 -214 69 -288 81
-432 66 -60 -6 -152 -22 -202 -35 -270 -73 -409 -91 -578 -75 -153 14 -296 43
-479 97 -217 63 -197 61 -211 17z m1627 -155 c54 -20 143 -84 143 -102 0 -15
-14 -51 -25 -65 -1 -1 -21 5 -45 13 -23 8 -68 16 -99 18 l-56 4 1 44 c0 24 4
51 8 60 5 13 0 19 -21 27 -26 10 -25 10 19 11 26 1 59 -4 75 -10z m268 -127
l40 -8 -46 -22 c-40 -19 -109 -30 -109 -17 0 3 10 16 22 30 23 27 30 28 93 17z"/>
</g>
</svg>
